<svg width="1200" height="360" viewBox="0 0 1200 360" fill="none" xmlns="http://www.w3.org/2000/svg" role="img" aria-labelledby="title desc">
  <title id="title">Pratik Thakare - Data Engineer, AI Engineer, Builder</title>
  <desc id="desc">A modern GitHub profile banner for a data engineer, AI engineer, and builder.</desc>
  <defs>
    <linearGradient id="bg" x1="0" y1="0" x2="1200" y2="360" gradientUnits="userSpaceOnUse">
      <stop stop-color="#020617"/>
      <stop offset="0.52" stop-color="#0F172A"/>
      <stop offset="1" stop-color="#111827"/>
    </linearGradient>
    <linearGradient id="accent" x1="156" y1="58" x2="1032" y2="302" gradientUnits="userSpaceOnUse">
      <stop stop-color="#14B8A6"/>
      <stop offset="0.52" stop-color="#6366F1"/>
      <stop offset="1" stop-color="#F59E0B"/>
    </linearGradient>
    <radialGradient id="glowA" cx="0" cy="0" r="1" gradientUnits="userSpaceOnUse" gradientTransform="translate(234 96) rotate(53) scale(260 160)">
      <stop stop-color="#14B8A6" stop-opacity="0.45"/>
      <stop offset="1" stop-color="#14B8A6" stop-opacity="0"/>
    </radialGradient>
    <radialGradient id="glowB" cx="0" cy="0" r="1" gradientUnits="userSpaceOnUse" gradientTransform="translate(866 246) rotate(40) scale(320 180)">
      <stop stop-color="#6366F1" stop-opacity="0.46"/>
      <stop offset="1" stop-color="#6366F1" stop-opacity="0"/>
    </radialGradient>
  </defs>
  <rect width="1200" height="360" rx="30" fill="url(#bg)"/>
  <rect width="1200" height="360" rx="30" fill="url(#glowA)"/>
  <rect width="1200" height="360" rx="30" fill="url(#glowB)"/>
  <g opacity="0.16">
    <path d="M88 72H1112" stroke="#E5E7EB"/>
    <path d="M88 132H1112" stroke="#E5E7EB"/>
    <path d="M88 192H1112" stroke="#E5E7EB"/>
    <path d="M88 252H1112" stroke="#E5E7EB"/>
    <path d="M178 42V318" stroke="#E5E7EB"/>
    <path d="M378 42V318" stroke="#E5E7EB"/>
    <path d="M578 42V318" stroke="#E5E7EB"/>
    <path d="M778 42V318" stroke="#E5E7EB"/>
    <path d="M978 42V318" stroke="#E5E7EB"/>
  </g>
  <path d="M86 265C178 218 238 236 315 250C438 273 513 247 616 182C738 105 833 116 951 153C1018 174 1070 178 1128 148" stroke="url(#accent)" stroke-width="3.5" stroke-linecap="round"/>
  <path d="M86 295C220 254 302 294 430 286C539 279 615 219 710 171C822 115 914 129 1084 84" stroke="#94A3B8" stroke-opacity="0.28" stroke-width="2" stroke-linecap="round"/>
  <g transform="translate(74 58)">
    <rect width="360" height="244" rx="22" fill="#020617" fill-opacity="0.78" stroke="#334155"/>
    <rect x="24" y="24" width="312" height="34" rx="17" fill="#0F172A" stroke="#1F2937"/>
    <circle cx="48" cy="41" r="6" fill="#14B8A6"/>
    <circle cx="70" cy="41" r="6" fill="#6366F1"/>
    <circle cx="92" cy="41" r="6" fill="#F59E0B"/>
    <text x="24" y="92" fill="#5EEAD4" font-family="ui-monospace, SFMono-Regular, Menlo, Consolas, monospace" font-size="17">pipeline.validate()</text>
    <text x="24" y="126" fill="#A5B4FC" font-family="ui-monospace, SFMono-Regular, Menlo, Consolas, monospace" font-size="17">agent.use_tools()</text>
    <text x="24" y="160" fill="#FCD34D" font-family="ui-monospace, SFMono-Regular, Menlo, Consolas, monospace" font-size="17">product.ship()</text>
    <rect x="24" y="192" width="88" height="28" rx="14" fill="#042F2E"/>
    <text x="45" y="211" fill="#CCFBF1" font-family="Inter, ui-sans-serif, system-ui, sans-serif" font-size="12" font-weight="700">DATA</text>
    <rect x="124" y="192" width="68" height="28" rx="14" fill="#312E81"/>
    <text x="149" y="211" fill="#E0E7FF" font-family="Inter, ui-sans-serif, system-ui, sans-serif" font-size="12" font-weight="700">AI</text>
    <rect x="204" y="192" width="104" height="28" rx="14" fill="#78350F"/>
    <text x="228" y="211" fill="#FEF3C7" font-family="Inter, ui-sans-serif, system-ui, sans-serif" font-size="12" font-weight="700">BUILD</text>
  </g>
  <g transform="translate(492 84)">
    <text x="0" y="42" fill="#F8FAFC" font-family="Inter, ui-sans-serif, system-ui, -apple-system, BlinkMacSystemFont, Segoe UI, sans-serif" font-size="54" font-weight="850">Pratik Thakare</text>
    <text x="2" y="88" fill="#CBD5E1" font-family="Inter, ui-sans-serif, system-ui, sans-serif" font-size="24" font-weight="650">Data Engineer · AI Engineer · Builder</text>
    <text x="2" y="137" fill="#94A3B8" font-family="Inter, ui-sans-serif, system-ui, sans-serif" font-size="18">I build reliable data foundations, then layer</text>
    <text x="2" y="165" fill="#94A3B8" font-family="Inter, ui-sans-serif, system-ui, sans-serif" font-size="18">agentic AI and clean product workflows on top.</text>
    <text x="2" y="224" fill="#F8FAFC" font-family="Inter, ui-sans-serif, system-ui, sans-serif" font-size="22" font-weight="800">Data → Intelligence → Product</text>
  </g>
</svg>
