<svg width="1200" height="420" viewBox="0 0 1200 420" fill="none" xmlns="http://www.w3.org/2000/svg" role="img" aria-labelledby="title desc">
  <title id="title">Pratik Thakare - Data Engineer, AI Engineer, Builder</title>
  <desc id="desc">A modern dark GitHub profile banner with data, AI, and builder positioning.</desc>
  <defs>
    <linearGradient id="bg" x1="0" y1="0" x2="1200" y2="420" gradientUnits="userSpaceOnUse">
      <stop stop-color="#07111F"/>
      <stop offset="0.48" stop-color="#111827"/>
      <stop offset="1" stop-color="#27140A"/>
    </linearGradient>
    <linearGradient id="accent" x1="180" y1="70" x2="1020" y2="350" gradientUnits="userSpaceOnUse">
      <stop stop-color="#22D3EE"/>
      <stop offset="0.45" stop-color="#8B5CF6"/>
      <stop offset="1" stop-color="#F59E0B"/>
    </linearGradient>
    <filter id="soft" x="-80" y="-80" width="1360" height="580" filterUnits="userSpaceOnUse" color-interpolation-filters="sRGB">
      <feGaussianBlur stdDeviation="42"/>
    </filter>
  </defs>
  <rect width="1200" height="420" rx="32" fill="url(#bg)"/>
  <g opacity="0.34" filter="url(#soft)">
    <circle cx="220" cy="115" r="120" fill="#22D3EE"/>
    <circle cx="930" cy="300" r="150" fill="#F59E0B"/>
    <circle cx="670" cy="140" r="150" fill="#8B5CF6"/>
  </g>
  <path d="M54 328C175 250 245 268 363 296C510 331 584 337 707 242C811 162 912 131 1081 178" stroke="url(#accent)" stroke-width="2.5" opacity="0.62"/>
  <path d="M56 354C204 284 304 338 425 344C548 350 635 299 739 234C855 162 964 183 1138 118" stroke="#94A3B8" stroke-width="1.5" opacity="0.24"/>
  <g opacity="0.28">
    <path d="M80 78H1120" stroke="#E5E7EB" stroke-width="1"/>
    <path d="M80 138H1120" stroke="#E5E7EB" stroke-width="1"/>
    <path d="M80 198H1120" stroke="#E5E7EB" stroke-width="1"/>
    <path d="M80 258H1120" stroke="#E5E7EB" stroke-width="1"/>
    <path d="M80 318H1120" stroke="#E5E7EB" stroke-width="1"/>
    <path d="M160 50V370" stroke="#E5E7EB" stroke-width="1"/>
    <path d="M360 50V370" stroke="#E5E7EB" stroke-width="1"/>
    <path d="M560 50V370" stroke="#E5E7EB" stroke-width="1"/>
    <path d="M760 50V370" stroke="#E5E7EB" stroke-width="1"/>
    <path d="M960 50V370" stroke="#E5E7EB" stroke-width="1"/>
  </g>
  <g transform="translate(74 66)">
    <rect width="460" height="288" rx="24" fill="#020617" fill-opacity="0.76" stroke="#334155"/>
    <circle cx="34" cy="34" r="7" fill="#EF4444"/>
    <circle cx="58" cy="34" r="7" fill="#F59E0B"/>
    <circle cx="82" cy="34" r="7" fill="#22C55E"/>
    <text x="34" y="88" fill="#67E8F9" font-family="ui-monospace, SFMono-Regular, Menlo, Consolas, monospace" font-size="20">data_pipeline.run()</text>
    <text x="34" y="128" fill="#CBD5E1" font-family="ui-monospace, SFMono-Regular, Menlo, Consolas, monospace" font-size="17">ingest → model → validate</text>
    <text x="34" y="168" fill="#C4B5FD" font-family="ui-monospace, SFMono-Regular, Menlo, Consolas, monospace" font-size="20">agent.use_tools()</text>
    <text x="34" y="208" fill="#CBD5E1" font-family="ui-monospace, SFMono-Regular, Menlo, Consolas, monospace" font-size="17">retrieve → reason → act</text>
    <text x="34" y="248" fill="#FCD34D" font-family="ui-monospace, SFMono-Regular, Menlo, Consolas, monospace" font-size="20">ship_product()</text>
  </g>
  <g transform="translate(590 83)">
    <text x="0" y="40" fill="#F8FAFC" font-family="Inter, ui-sans-serif, system-ui, -apple-system, BlinkMacSystemFont, Segoe UI, sans-serif" font-size="56" font-weight="800">Pratik Thakare</text>
    <text x="2" y="88" fill="#CBD5E1" font-family="Inter, ui-sans-serif, system-ui, sans-serif" font-size="25" font-weight="600">Data Engineer + AI Engineer + Builder</text>
    <text x="2" y="136" fill="#94A3B8" font-family="Inter, ui-sans-serif, system-ui, sans-serif" font-size="19">I turn real data into reliable systems, then layer AI</text>
    <text x="2" y="165" fill="#94A3B8" font-family="Inter, ui-sans-serif, system-ui, sans-serif" font-size="19">workflows on top to build products people can use.</text>
    <g transform="translate(2 212)">
      <rect width="128" height="42" rx="21" fill="#0F766E"/>
      <text x="24" y="27" fill="#ECFEFF" font-family="Inter, ui-sans-serif, system-ui, sans-serif" font-size="15" font-weight="700">DATA</text>
      <rect x="144" width="96" height="42" rx="21" fill="#4338CA"/>
      <text x="173" y="27" fill="#EEF2FF" font-family="Inter, ui-sans-serif, system-ui, sans-serif" font-size="15" font-weight="700">AI</text>
      <rect x="256" width="132" height="42" rx="21" fill="#B45309"/>
      <text x="283" y="27" fill="#FFF7ED" font-family="Inter, ui-sans-serif, system-ui, sans-serif" font-size="15" font-weight="700">PRODUCT</text>
    </g>
  </g>
</svg>
