<svg width="1200" height="360" viewBox="0 0 1200 360" fill="none" xmlns="http://www.w3.org/2000/svg" role="img" aria-labelledby="title desc">
  <title id="title">Featured builder projects</title>
  <desc id="desc">Three project cards for WorthNet, LearnFlow Studio, and Data AI tools.</desc>
  <rect width="1200" height="360" rx="28" fill="#0B1120"/>
  <g transform="translate(54 56)">
    <rect width="330" height="248" rx="24" fill="#111827" stroke="#334155"/>
    <rect x="24" y="24" width="64" height="64" rx="18" fill="#0F766E"/>
    <path d="M42 61H73M42 45H66M42 77H58" stroke="#CCFBF1" stroke-width="5" stroke-linecap="round"/>
    <text x="24" y="126" fill="#F8FAFC" font-family="Inter, ui-sans-serif, system-ui, sans-serif" font-size="28" font-weight="800">WorthNet</text>
    <text x="24" y="164" fill="#CBD5E1" font-family="Inter, ui-sans-serif, system-ui, sans-serif" font-size="16">Finance intelligence, portfolio</text>
    <text x="24" y="190" fill="#CBD5E1" font-family="Inter, ui-sans-serif, system-ui, sans-serif" font-size="16">analytics, integrations, AI,</text>
    <text x="24" y="216" fill="#CBD5E1" font-family="Inter, ui-sans-serif, system-ui, sans-serif" font-size="16">and private deployment.</text>
  </g>
  <g transform="translate(435 56)">
    <rect width="330" height="248" rx="24" fill="#111827" stroke="#334155"/>
    <rect x="24" y="24" width="64" height="64" rx="18" fill="#4338CA"/>
    <path d="M46 45H70V69H46V45ZM58 69V80M42 80H74" stroke="#E0E7FF" stroke-width="5" stroke-linecap="round" stroke-linejoin="round"/>
    <text x="24" y="126" fill="#F8FAFC" font-family="Inter, ui-sans-serif, system-ui, sans-serif" font-size="28" font-weight="800">LearnFlow Studio</text>
    <text x="24" y="164" fill="#CBD5E1" font-family="Inter, ui-sans-serif, system-ui, sans-serif" font-size="16">AI learning workspace with</text>
    <text x="24" y="190" fill="#CBD5E1" font-family="Inter, ui-sans-serif, system-ui, sans-serif" font-size="16">project flows, chat, resources,</text>
    <text x="24" y="216" fill="#CBD5E1" font-family="Inter, ui-sans-serif, system-ui, sans-serif" font-size="16">and workflow automation.</text>
  </g>
  <g transform="translate(816 56)">
    <rect width="330" height="248" rx="24" fill="#111827" stroke="#334155"/>
    <rect x="24" y="24" width="64" height="64" rx="18" fill="#B45309"/>
    <path d="M43 72C53 50 65 50 75 72M43 72H75M52 79H66" stroke="#FEF3C7" stroke-width="5" stroke-linecap="round" stroke-linejoin="round"/>
    <text x="24" y="126" fill="#F8FAFC" font-family="Inter, ui-sans-serif, system-ui, sans-serif" font-size="28" font-weight="800">Data + AI Tools</text>
    <text x="24" y="164" fill="#CBD5E1" font-family="Inter, ui-sans-serif, system-ui, sans-serif" font-size="16">Market intelligence, finance</text>
    <text x="24" y="190" fill="#CBD5E1" font-family="Inter, ui-sans-serif, system-ui, sans-serif" font-size="16">research, workflow agents,</text>
    <text x="24" y="216" fill="#CBD5E1" font-family="Inter, ui-sans-serif, system-ui, sans-serif" font-size="16">and practical automation.</text>
  </g>
</svg>
